<?xml version="1.0" encoding="utf-8"?>
<!-- Generator: Adobe Illustrator 17.1.0, SVG Export Plug-In . SVG Version: 6.00 Build 0)  -->
<!DOCTYPE svg PUBLIC "-//W3C//DTD SVG 1.1//EN" "http://www.w3.org/Graphics/SVG/1.1/DTD/svg11.dtd">
<svg version="1.1" id="Layer_1" xmlns="http://www.w3.org/2000/svg" xmlns:xlink="http://www.w3.org/1999/xlink" x="0px" y="0px"
	 viewBox="0 0 112.5 75.4" enable-background="new 0 0 112.5 75.4" xml:space="preserve">
<g>
	<path fill="#EF8621" stroke="#F5DBBB" stroke-width="0.75" stroke-miterlimit="10" d="M56.3,59c-7.4-4.1-10.3-5.9-14.2-10.5
		c-4.1-4.9-9-10.6-11.4-10.1c-3.2,0.7-1.5,2.9-1.5,2.9s6.6,10.1,15.3,15.5c4,4.9,10.8,4.1,14,4.6c3.1,0.5,4.2-1.2,4.2-1.2L56.3,59z"
		/>
	<path fill="#EF8621" stroke="#F5DBBB" stroke-width="0.75" stroke-miterlimit="10" d="M51.3,58c-9.3-5-11.6-7-16.5-12.8
		C29.7,39.1,22.2,32,19.3,32.6c-4,0.9-1.9,3.6-1.9,3.6s8.4,12.5,19.3,19.1c5,6,13.5,5,17.4,5.6c3.9,0.6,5.2-1.5,5.2-1.5L51.3,58z"/>
	<path fill="#EF8621" stroke="#F5DBBB" stroke-width="0.75" stroke-miterlimit="10" d="M47.1,59c-10.9-5.9-13.5-8.2-19.2-15
		c-6-7.1-14.8-15.4-18.2-14.7c-4.7,1-2.2,4.3-2.2,4.3s10.9,13.9,23.6,21.6c5.9,7,14.7,6.5,19.2,7.2s6-1.8,6-1.8L47.1,59z"/>
	<path fill="#EF8621" stroke="#F5DBBB" stroke-width="0.75" stroke-miterlimit="10" d="M110.6,59.3C107,77.4,71.2,76,49.5,73.8
		c-1.8-0.2-9.6-2.1-15.8-5.1c-5.3-2.5-33-26.2-33.3-30.5c-0.9-16.2,29,16.2,36,17.8c7.6,1.8,18.2,2,22.6,0.6
		c2.5-0.7,12.3-2.1,7.3-10.7c-3.6-6.4-8.9-10.6-10.3-14.4c-1.5-3.9,0.3-8.7,6-4.5c12.2,11.7,16.4,12.8,25.1,15.7
		c5.7,1.9,12.9,5.6,16.7,8.4C108,54,111.1,57.1,110.6,59.3z"/>
</g>
<g>
	<path fill="#272740" stroke="#697480" stroke-width="0.75" stroke-miterlimit="10" d="M56.3,16.5c7.4,4.2,10.2,5.9,14.1,10.7
		c4.1,5,8.9,10.7,11.3,10.2c3.2-0.6,1.6-2.9,1.6-2.9s-6.5-10.2-15.2-15.6c-4-4.9-10.8-4.2-13.9-4.8C51,13.6,50,15.3,50,15.3
		L56.3,16.5z"/>
	<path fill="#272740" stroke="#697480" stroke-width="0.75" stroke-miterlimit="10" d="M61.3,17.6c9.3,5.1,11.5,7.1,16.4,13
		c5.1,6.1,12.6,13.3,15.5,12.7c4-0.8,1.9-3.6,1.9-3.6S86.9,27,76,20.4c-5-6.1-13.5-5.1-17.4-5.7s-5.2,1.5-5.2,1.5L61.3,17.6z"/>
	<path fill="#272740" stroke="#697480" stroke-width="0.75" stroke-miterlimit="10" d="M65.6,16.6c10.8,6,13.4,8.3,19.1,15.1
		c6,7.2,14.7,15.5,18.1,14.8c4.7-1,2.2-4.2,2.2-4.2s-10.7-14-23.5-21.8c-5.8-7.1-14.6-6.6-19.2-7.3c-4.5-0.8-6,1.7-6,1.7L65.6,16.6z
		"/>
	<path fill="#272740" stroke="#697480" stroke-width="0.75" stroke-miterlimit="10" d="M2.1,15.8c3.8-18,39.5-16.4,61.2-14
		C65.1,2,72.9,4,79.1,7c5.3,2.6,32.8,26.5,33,30.8c0.8,16.2-28.9-16.4-35.9-18.1c-7.6-1.8-18.2-2.1-22.6-0.8
		c-2.5,0.7-12.3,2-7.4,10.7C49.9,35.9,55,40.3,56.4,44c1.4,3.9-0.4,8.7-6.1,4.5C38.3,36.7,34,35.6,25.4,32.6
		c-5.7-2-12.8-5.7-16.7-8.5C4.7,21.1,1.6,18,2.1,15.8z"/>
</g>
</svg>
